<?xml version="1.0" encoding="iso-8859-1"?>
<!-- Generator: Adobe Illustrator 19.1.0, SVG Export Plug-In . SVG Version: 6.00 Build 0)  -->
<svg version="1.1" id="Capa_1" xmlns="http://www.w3.org/2000/svg" xmlns:xlink="http://www.w3.org/1999/xlink" x="0px" y="0px"
	 viewBox="0 0 65.345 65.345" style="enable-background:new 0 0 65.345 65.345;" xml:space="preserve">
<path d="M58.316,43.987c0.523,0,1.091-0.386,1.205-0.918c1.93-8.941,3.861-17.882,5.792-26.823c0.17-0.786-0.357-1.582-1.205-1.582
	c-15.507,0-31.013,0-46.52,0c-1.895,0-3.791,0-5.686,0c-0.368-1.74-0.736-3.479-1.103-5.219c-0.422-1.994-0.843-3.988-1.265-5.983
	C9.421,2.93,8.853,2.545,8.328,2.545c-2.374,0-4.747,0-7.121,0c-1.609,0-1.611,2.5,0,2.5c2.036,0,4.073,0,6.11,0
	c1.482,7.009,2.963,14.018,4.445,21.028c0.005,0.165,0.04,0.327,0.101,0.478c1.37,6.479,2.739,12.958,4.109,19.437
	c0.337,1.594,0.674,3.188,1.011,4.782c-2.377,0.878-4.121,3.184-4.121,5.828c0,3.277,2.671,6.056,5.94,6.195
	c3.487,0.149,6.092-2.516,6.443-5.823c0.027-0.114,0.044-0.235,0.037-0.372c0.007-0.136-0.009-0.255-0.036-0.368
	c-0.131-1.24-0.578-2.392-1.275-3.342c9.143,0,18.285,0,27.428,0c-0.792,1.043-1.273,2.329-1.273,3.71
	c0,3.277,2.671,6.056,5.94,6.195c3.487,0.149,6.092-2.516,6.443-5.823c0.027-0.114,0.044-0.235,0.037-0.372
	c0.007-0.136-0.009-0.255-0.036-0.368c-0.339-3.202-2.791-5.842-6.174-5.842c-12.294,0-24.588,0-36.883,0
	c-0.451-2.134-0.902-4.267-1.353-6.401C31.506,43.987,44.911,43.987,58.316,43.987z M14.568,27.275c2.806,0,5.612,0,8.419,0
	c0.822,4.737,1.644,9.475,2.466,14.212c-2.627,0-5.254,0-7.88,0C16.571,36.75,15.569,32.013,14.568,27.275z M38.652,41.487
	c0-4.737,0-9.475,0-14.212c3.761,0,7.521,0,11.282,0c-0.822,4.737-1.644,9.475-2.466,14.212
	C44.529,41.487,41.59,41.487,38.652,41.487z M36.152,41.487c-2.724,0-5.449,0-8.173,0c-0.822-4.737-1.644-9.475-2.466-14.212
	c3.546,0,7.093,0,10.639,0C36.152,32.013,36.152,36.75,36.152,41.487z M57.309,41.487c-2.438,0-4.877,0-7.315,0
	c0.822-4.737,1.644-9.475,2.466-14.212c1.114,0,2.228,0,3.343,0c1.525,0,3.05,0,4.575,0C59.355,32.013,58.332,36.75,57.309,41.487z
	 M57.41,17.164c1.717,0,3.434,0,5.151,0c-0.548,2.537-1.096,5.074-1.643,7.611c-13.943,0-27.886,0-41.829,0
	c-1.683,0-3.366,0-5.049,0c-0.536-2.537-1.073-5.074-1.609-7.611C27.423,17.164,42.417,17.164,57.41,17.164z M15.363,56.599
	c0-4.796,7.164-4.754,7.42,0C22.527,61.351,15.363,61.393,15.363,56.599z M60.047,56.599c-0.256,4.752-7.42,4.794-7.42,0
	C52.626,51.803,59.791,51.845,60.047,56.599z"/>
<g>
</g>
<g>
</g>
<g>
</g>
<g>
</g>
<g>
</g>
<g>
</g>
<g>
</g>
<g>
</g>
<g>
</g>
<g>
</g>
<g>
</g>
<g>
</g>
<g>
</g>
<g>
</g>
<g>
</g>
</svg>
